<svg width="400" height="400" viewBox="0 0 400 400" fill="none" xmlns="http://www.w3.org/2000/svg">
<circle cx="200" cy="200" r="192.5" fill="#9159F3" stroke="black" stroke-width="15"/>
<g filter="url(#filter0_d_301_17)">
<path d="M157.2 180V219L40.2 167V133.2L157.2 81.2V120.2L83.1 150.1L157.2 180Z" fill="white"/>
<path d="M316.5 249.1L242.4 219.2V180.2L359.4 232.2V266L242.4 318V279L316.5 249.1Z" fill="white"/>
<path d="M143 286L221 104H265.2L189.8 286H143Z" fill="#673AB7"/>
<path d="M159.2 180V178.65L157.948 178.145L88.4448 150.1L157.948 122.055L159.2 121.55V120.2V81.2V78.1224L156.388 79.3723L39.3877 131.372L38.2 131.9V133.2V167V168.3L39.3877 168.828L156.388 220.828L159.2 222.077V219V180ZM240.4 219.2V220.55L241.652 221.055L311.155 249.1L241.652 277.145L240.4 277.65V279V318V321.077L243.212 319.828L360.212 267.828L361.4 267.3V266V232.2V230.9L360.212 230.372L243.212 178.372L240.4 177.122V180.2V219.2ZM141.162 285.212L139.967 288H143H189.8H191.136L191.648 286.765L267.048 104.765L268.193 102H265.2H221H219.681L219.162 103.212L141.162 285.212Z" stroke="black" stroke-width="4"/>
</g>
<defs>
<filter id="filter0_d_301_17" x="32.2" y="75.0449" width="335.2" height="257.11" filterUnits="userSpaceOnUse" color-interpolation-filters="sRGB">
<feFlood flood-opacity="0" result="BackgroundImageFix"/>
<feColorMatrix in="SourceAlpha" type="matrix" values="0 0 0 0 0 0 0 0 0 0 0 0 0 0 0 0 0 0 127 0" result="hardAlpha"/>
<feOffset dy="4"/>
<feGaussianBlur stdDeviation="2"/>
<feComposite in2="hardAlpha" operator="out"/>
<feColorMatrix type="matrix" values="0 0 0 0 0 0 0 0 0 0 0 0 0 0 0 0 0 0 0.25 0"/>
<feBlend mode="normal" in2="BackgroundImageFix" result="effect1_dropShadow_301_17"/>
<feBlend mode="normal" in="SourceGraphic" in2="effect1_dropShadow_301_17" result="shape"/>
</filter>
</defs>
</svg>
