<svg width="1584" height="258" viewBox="0 0 1584 258" fill="none" xmlns="http://www.w3.org/2000/svg">
<g filter="url(#filter0_d_301_25)">
<mask id="path-1-outside-1_301_25" maskUnits="userSpaceOnUse" x="4.19995" y="-0.800049" width="1576" height="250" fill="black">
<rect fill="white" x="4.19995" y="-0.800049" width="1576" height="250"/>
<path d="M503 204.4C464.347 207.867 432.28 209.6 406.8 209.6C389.813 209.6 377.333 205.613 369.36 197.64C361.387 189.667 357.4 177.187 357.4 160.2V77C357.4 58.8 361.473 45.6267 369.62 37.48C377.94 29.16 391.2 25 409.4 25H503V61.4H419.8C409.4 61.4 404.2 66.6 404.2 77V160.2C404.2 164.187 405.327 167.393 407.58 169.82C410.007 172.073 413.04 173.2 416.68 173.2C420.32 173.2 424.307 173.2 428.64 173.2C432.973 173.027 437.48 172.853 442.16 172.68C446.84 172.507 451.52 172.333 456.2 172.16C461.053 171.987 467.207 171.64 474.66 171.12C482.287 170.6 491.733 169.993 503 169.3V204.4Z"/>
<path d="M566.73 71.8C583.544 68.3333 598.277 66.6 610.93 66.6H622.63C634.417 66.6 643.864 70.1533 650.97 77.26C658.077 84.3667 661.63 93.8133 661.63 105.6V207H616.13V110.8C616.13 108.2 615.264 106.033 613.53 104.3C611.797 102.567 609.63 101.7 607.03 101.7H597.93C591.344 101.7 585.277 102.047 579.73 102.74C574.357 103.433 570.024 103.953 566.73 104.3V207H521.23V25H566.73V71.8Z"/>
<path d="M739.6 173.2C748.787 173.2 759.187 171.467 770.8 168V152.4H733.1C730.5 152.4 728.333 153.267 726.6 155C724.867 156.733 724 158.9 724 161.5V164.1C724 166.7 724.867 168.867 726.6 170.6C728.333 172.333 730.5 173.2 733.1 173.2H739.6ZM691.5 71.8C723.22 68.3333 751.82 66.6 777.3 66.6C789.087 66.6 798.533 70.1533 805.64 77.26C812.747 84.3667 816.3 93.8133 816.3 105.6V207H776L773.4 194C765.253 199.373 756.847 203.36 748.18 205.96C739.687 208.387 732.493 209.6 726.6 209.6H717.5C705.713 209.6 696.267 206.047 689.16 198.94C682.053 191.833 678.5 182.387 678.5 170.6V158.9C678.5 147.113 682.053 137.667 689.16 130.56C696.267 123.453 705.713 119.9 717.5 119.9H770.8V109.5C770.8 106.9 769.933 104.733 768.2 103C766.467 101.267 764.3 100.4 761.7 100.4C750.433 100.4 737.953 100.92 724.26 101.96C710.74 103 699.82 103.78 691.5 104.3V71.8Z"/>
<path d="M935.829 207C919.016 208.733 902.549 209.6 886.429 209.6C874.642 209.6 865.196 206.047 858.089 198.94C850.982 191.833 847.429 182.387 847.429 170.6V104.3H831.829V69.2H847.429L852.629 38H892.929V69.2H925.429V104.3H892.929V164.1C892.929 166.7 893.796 168.867 895.529 170.6C897.262 172.333 899.429 173.2 902.029 173.2H935.829V207Z"/>
<path d="M1097.14 204.4C1058.49 207.867 1026.42 209.6 1000.94 209.6C983.954 209.6 971.474 205.613 963.501 197.64C955.527 189.667 951.541 177.187 951.541 160.2V77C951.541 58.8 955.614 45.6267 963.761 37.48C972.081 29.16 985.341 25 1003.54 25H1097.14V61.4H1013.94C1003.54 61.4 998.341 66.6 998.341 77V160.2C998.341 164.187 999.467 167.393 1001.72 169.82C1004.15 172.073 1007.18 173.2 1010.82 173.2C1014.46 173.2 1018.45 173.2 1022.78 173.2C1027.11 173.027 1031.62 172.853 1036.3 172.68C1040.98 172.507 1045.66 172.333 1050.34 172.16C1055.19 171.987 1061.35 171.64 1068.8 171.12C1076.43 170.6 1085.87 169.993 1097.14 169.3V204.4Z"/>
<path d="M1255.77 168C1255.77 181 1252.04 191.227 1244.59 198.68C1237.31 205.96 1227.17 209.6 1214.17 209.6H1154.37C1141.37 209.6 1131.14 205.96 1123.69 198.68C1116.41 191.227 1112.77 181 1112.77 168V108.2C1112.77 95.2 1116.41 85.06 1123.69 77.78C1131.14 70.3267 1141.37 66.6 1154.37 66.6H1214.17C1227.17 66.6 1237.31 70.3267 1244.59 77.78C1252.04 85.06 1255.77 95.2 1255.77 108.2V168ZM1210.27 112.1C1210.27 105.167 1206.8 101.7 1199.87 101.7H1168.67C1161.74 101.7 1158.27 105.167 1158.27 112.1V164.1C1158.27 171.033 1161.74 174.5 1168.67 174.5H1199.87C1206.8 174.5 1210.27 171.033 1210.27 164.1V112.1Z"/>
<path d="M1376.64 207L1374.04 194C1365.89 199.373 1357.49 203.36 1348.82 205.96C1340.33 208.387 1333.13 209.6 1327.24 209.6H1315.54C1303.75 209.6 1294.31 206.047 1287.2 198.94C1280.09 191.833 1276.54 182.387 1276.54 170.6V110.8C1276.54 97.8 1280.18 87.66 1287.46 80.38C1294.91 72.9267 1305.14 69.2 1318.14 69.2H1371.44V25H1416.94V207H1376.64ZM1340.24 171.9C1349.43 171.9 1359.83 170.167 1371.44 166.7V104.3H1332.44C1325.51 104.3 1322.04 107.767 1322.04 114.7V162.8C1322.04 165.4 1322.91 167.567 1324.64 169.3C1326.37 171.033 1328.54 171.9 1331.14 171.9H1340.24Z"/>
<path d="M1496.21 99.1C1489.28 99.1 1485.81 102.567 1485.81 109.5V123.8H1530.01V109.5C1530.01 102.567 1526.54 99.1 1519.61 99.1H1496.21ZM1570.31 204.4C1536.86 207.867 1506.52 209.6 1479.31 209.6C1467.52 209.6 1458.08 206.047 1450.97 198.94C1443.86 191.833 1440.31 182.387 1440.31 170.6V108.2C1440.31 95.2 1443.95 85.06 1451.23 77.78C1458.68 70.3267 1468.91 66.6 1481.91 66.6H1533.91C1546.91 66.6 1557.05 70.3267 1564.33 77.78C1571.78 85.06 1575.51 95.2 1575.51 108.2V156.3H1485.81V166.7C1485.81 169.3 1486.68 171.467 1488.41 173.2C1490.14 174.933 1492.31 175.8 1494.91 175.8C1512.07 175.8 1537.2 174.5 1570.31 171.9V204.4Z"/>
<path d="M125.2 105V144L8.19995 92V58.2L125.2 6.19995V45.2L51.1 75.1L125.2 105Z"/>
<path d="M284.5 174.1L210.4 144.2V105.2L327.4 157.2V191L210.4 243V204L284.5 174.1Z"/>
<path d="M111 211L189 28.9999H233.2L157.8 211H111Z"/>
</mask>
<path d="M503 204.4C464.347 207.867 432.28 209.6 406.8 209.6C389.813 209.6 377.333 205.613 369.36 197.64C361.387 189.667 357.4 177.187 357.4 160.2V77C357.4 58.8 361.473 45.6267 369.62 37.48C377.94 29.16 391.2 25 409.4 25H503V61.4H419.8C409.4 61.4 404.2 66.6 404.2 77V160.2C404.2 164.187 405.327 167.393 407.58 169.82C410.007 172.073 413.04 173.2 416.68 173.2C420.32 173.2 424.307 173.2 428.64 173.2C432.973 173.027 437.48 172.853 442.16 172.68C446.84 172.507 451.52 172.333 456.2 172.16C461.053 171.987 467.207 171.64 474.66 171.12C482.287 170.6 491.733 169.993 503 169.3V204.4Z" fill="white"/>
<path d="M566.73 71.8C583.544 68.3333 598.277 66.6 610.93 66.6H622.63C634.417 66.6 643.864 70.1533 650.97 77.26C658.077 84.3667 661.63 93.8133 661.63 105.6V207H616.13V110.8C616.13 108.2 615.264 106.033 613.53 104.3C611.797 102.567 609.63 101.7 607.03 101.7H597.93C591.344 101.7 585.277 102.047 579.73 102.74C574.357 103.433 570.024 103.953 566.73 104.3V207H521.23V25H566.73V71.8Z" fill="white"/>
<path d="M739.6 173.2C748.787 173.2 759.187 171.467 770.8 168V152.4H733.1C730.5 152.4 728.333 153.267 726.6 155C724.867 156.733 724 158.9 724 161.5V164.1C724 166.7 724.867 168.867 726.6 170.6C728.333 172.333 730.5 173.2 733.1 173.2H739.6ZM691.5 71.8C723.22 68.3333 751.82 66.6 777.3 66.6C789.087 66.6 798.533 70.1533 805.64 77.26C812.747 84.3667 816.3 93.8133 816.3 105.6V207H776L773.4 194C765.253 199.373 756.847 203.36 748.18 205.96C739.687 208.387 732.493 209.6 726.6 209.6H717.5C705.713 209.6 696.267 206.047 689.16 198.94C682.053 191.833 678.5 182.387 678.5 170.6V158.9C678.5 147.113 682.053 137.667 689.16 130.56C696.267 123.453 705.713 119.9 717.5 119.9H770.8V109.5C770.8 106.9 769.933 104.733 768.2 103C766.467 101.267 764.3 100.4 761.7 100.4C750.433 100.4 737.953 100.92 724.26 101.96C710.74 103 699.82 103.78 691.5 104.3V71.8Z" fill="white"/>
<path d="M935.829 207C919.016 208.733 902.549 209.6 886.429 209.6C874.642 209.6 865.196 206.047 858.089 198.94C850.982 191.833 847.429 182.387 847.429 170.6V104.3H831.829V69.2H847.429L852.629 38H892.929V69.2H925.429V104.3H892.929V164.1C892.929 166.7 893.796 168.867 895.529 170.6C897.262 172.333 899.429 173.2 902.029 173.2H935.829V207Z" fill="white"/>
<path d="M1097.14 204.4C1058.49 207.867 1026.42 209.6 1000.94 209.6C983.954 209.6 971.474 205.613 963.501 197.64C955.527 189.667 951.541 177.187 951.541 160.2V77C951.541 58.8 955.614 45.6267 963.761 37.48C972.081 29.16 985.341 25 1003.54 25H1097.14V61.4H1013.94C1003.54 61.4 998.341 66.6 998.341 77V160.2C998.341 164.187 999.467 167.393 1001.72 169.82C1004.15 172.073 1007.18 173.2 1010.82 173.2C1014.46 173.2 1018.45 173.2 1022.78 173.2C1027.11 173.027 1031.62 172.853 1036.3 172.68C1040.98 172.507 1045.66 172.333 1050.34 172.16C1055.19 171.987 1061.35 171.64 1068.8 171.12C1076.43 170.6 1085.87 169.993 1097.14 169.3V204.4Z" fill="white"/>
<path d="M1255.77 168C1255.77 181 1252.04 191.227 1244.59 198.68C1237.31 205.96 1227.17 209.6 1214.17 209.6H1154.37C1141.37 209.6 1131.14 205.96 1123.69 198.68C1116.41 191.227 1112.77 181 1112.77 168V108.2C1112.77 95.2 1116.41 85.06 1123.69 77.78C1131.14 70.3267 1141.37 66.6 1154.37 66.6H1214.17C1227.17 66.6 1237.31 70.3267 1244.59 77.78C1252.04 85.06 1255.77 95.2 1255.77 108.2V168ZM1210.27 112.1C1210.27 105.167 1206.8 101.7 1199.87 101.7H1168.67C1161.74 101.7 1158.27 105.167 1158.27 112.1V164.1C1158.27 171.033 1161.74 174.5 1168.67 174.5H1199.87C1206.8 174.5 1210.27 171.033 1210.27 164.1V112.1Z" fill="white"/>
<path d="M1376.64 207L1374.04 194C1365.89 199.373 1357.49 203.36 1348.82 205.96C1340.33 208.387 1333.13 209.6 1327.24 209.6H1315.54C1303.75 209.6 1294.31 206.047 1287.2 198.94C1280.09 191.833 1276.54 182.387 1276.54 170.6V110.8C1276.54 97.8 1280.18 87.66 1287.46 80.38C1294.91 72.9267 1305.14 69.2 1318.14 69.2H1371.44V25H1416.94V207H1376.64ZM1340.24 171.9C1349.43 171.9 1359.83 170.167 1371.44 166.7V104.3H1332.44C1325.51 104.3 1322.04 107.767 1322.04 114.7V162.8C1322.04 165.4 1322.91 167.567 1324.64 169.3C1326.37 171.033 1328.54 171.9 1331.14 171.9H1340.24Z" fill="white"/>
<path d="M1496.21 99.1C1489.28 99.1 1485.81 102.567 1485.81 109.5V123.8H1530.01V109.5C1530.01 102.567 1526.54 99.1 1519.61 99.1H1496.21ZM1570.31 204.4C1536.86 207.867 1506.52 209.6 1479.31 209.6C1467.52 209.6 1458.08 206.047 1450.97 198.94C1443.86 191.833 1440.31 182.387 1440.31 170.6V108.2C1440.31 95.2 1443.95 85.06 1451.23 77.78C1458.68 70.3267 1468.91 66.6 1481.91 66.6H1533.91C1546.91 66.6 1557.05 70.3267 1564.33 77.78C1571.78 85.06 1575.51 95.2 1575.51 108.2V156.3H1485.81V166.7C1485.81 169.3 1486.68 171.467 1488.41 173.2C1490.14 174.933 1492.31 175.8 1494.91 175.8C1512.07 175.8 1537.2 174.5 1570.31 171.9V204.4Z" fill="white"/>
<path d="M125.2 105V144L8.19995 92V58.2L125.2 6.19995V45.2L51.1 75.1L125.2 105Z" fill="white"/>
<path d="M284.5 174.1L210.4 144.2V105.2L327.4 157.2V191L210.4 243V204L284.5 174.1Z" fill="white"/>
<path d="M111 211L189 28.9999H233.2L157.8 211H111Z" fill="#673AB7"/>
<path d="M503 204.4C464.347 207.867 432.28 209.6 406.8 209.6C389.813 209.6 377.333 205.613 369.36 197.64C361.387 189.667 357.4 177.187 357.4 160.2V77C357.4 58.8 361.473 45.6267 369.62 37.48C377.94 29.16 391.2 25 409.4 25H503V61.4H419.8C409.4 61.4 404.2 66.6 404.2 77V160.2C404.2 164.187 405.327 167.393 407.58 169.82C410.007 172.073 413.04 173.2 416.68 173.2C420.32 173.2 424.307 173.2 428.64 173.2C432.973 173.027 437.48 172.853 442.16 172.68C446.84 172.507 451.52 172.333 456.2 172.16C461.053 171.987 467.207 171.64 474.66 171.12C482.287 170.6 491.733 169.993 503 169.3V204.4Z" stroke="black" stroke-width="8" mask="url(#path-1-outside-1_301_25)"/>
<path d="M566.73 71.8C583.544 68.3333 598.277 66.6 610.93 66.6H622.63C634.417 66.6 643.864 70.1533 650.97 77.26C658.077 84.3667 661.63 93.8133 661.63 105.6V207H616.13V110.8C616.13 108.2 615.264 106.033 613.53 104.3C611.797 102.567 609.63 101.7 607.03 101.7H597.93C591.344 101.7 585.277 102.047 579.73 102.74C574.357 103.433 570.024 103.953 566.73 104.3V207H521.23V25H566.73V71.8Z" stroke="black" stroke-width="8" mask="url(#path-1-outside-1_301_25)"/>
<path d="M739.6 173.2C748.787 173.2 759.187 171.467 770.8 168V152.4H733.1C730.5 152.4 728.333 153.267 726.6 155C724.867 156.733 724 158.9 724 161.5V164.1C724 166.7 724.867 168.867 726.6 170.6C728.333 172.333 730.5 173.2 733.1 173.2H739.6ZM691.5 71.8C723.22 68.3333 751.82 66.6 777.3 66.6C789.087 66.6 798.533 70.1533 805.64 77.26C812.747 84.3667 816.3 93.8133 816.3 105.6V207H776L773.4 194C765.253 199.373 756.847 203.36 748.18 205.96C739.687 208.387 732.493 209.6 726.6 209.6H717.5C705.713 209.6 696.267 206.047 689.16 198.94C682.053 191.833 678.5 182.387 678.5 170.6V158.9C678.5 147.113 682.053 137.667 689.16 130.56C696.267 123.453 705.713 119.9 717.5 119.9H770.8V109.5C770.8 106.9 769.933 104.733 768.2 103C766.467 101.267 764.3 100.4 761.7 100.4C750.433 100.4 737.953 100.92 724.26 101.96C710.74 103 699.82 103.78 691.5 104.3V71.8Z" stroke="black" stroke-width="8" mask="url(#path-1-outside-1_301_25)"/>
<path d="M935.829 207C919.016 208.733 902.549 209.6 886.429 209.6C874.642 209.6 865.196 206.047 858.089 198.94C850.982 191.833 847.429 182.387 847.429 170.6V104.3H831.829V69.2H847.429L852.629 38H892.929V69.2H925.429V104.3H892.929V164.1C892.929 166.7 893.796 168.867 895.529 170.6C897.262 172.333 899.429 173.2 902.029 173.2H935.829V207Z" stroke="black" stroke-width="8" mask="url(#path-1-outside-1_301_25)"/>
<path d="M1097.14 204.4C1058.49 207.867 1026.42 209.6 1000.94 209.6C983.954 209.6 971.474 205.613 963.501 197.64C955.527 189.667 951.541 177.187 951.541 160.2V77C951.541 58.8 955.614 45.6267 963.761 37.48C972.081 29.16 985.341 25 1003.54 25H1097.14V61.4H1013.94C1003.54 61.4 998.341 66.6 998.341 77V160.2C998.341 164.187 999.467 167.393 1001.72 169.82C1004.15 172.073 1007.18 173.2 1010.82 173.2C1014.46 173.2 1018.45 173.2 1022.78 173.2C1027.11 173.027 1031.62 172.853 1036.3 172.68C1040.98 172.507 1045.66 172.333 1050.34 172.16C1055.19 171.987 1061.35 171.64 1068.8 171.12C1076.43 170.6 1085.87 169.993 1097.14 169.3V204.4Z" stroke="black" stroke-width="8" mask="url(#path-1-outside-1_301_25)"/>
<path d="M1255.77 168C1255.77 181 1252.04 191.227 1244.59 198.68C1237.31 205.96 1227.17 209.6 1214.17 209.6H1154.37C1141.37 209.6 1131.14 205.96 1123.69 198.68C1116.41 191.227 1112.77 181 1112.77 168V108.2C1112.77 95.2 1116.41 85.06 1123.69 77.78C1131.14 70.3267 1141.37 66.6 1154.37 66.6H1214.17C1227.17 66.6 1237.31 70.3267 1244.59 77.78C1252.04 85.06 1255.77 95.2 1255.77 108.2V168ZM1210.27 112.1C1210.27 105.167 1206.8 101.7 1199.87 101.7H1168.67C1161.74 101.7 1158.27 105.167 1158.27 112.1V164.1C1158.27 171.033 1161.74 174.5 1168.67 174.5H1199.87C1206.8 174.5 1210.27 171.033 1210.27 164.1V112.1Z" stroke="black" stroke-width="8" mask="url(#path-1-outside-1_301_25)"/>
<path d="M1376.64 207L1374.04 194C1365.89 199.373 1357.49 203.36 1348.82 205.96C1340.33 208.387 1333.13 209.6 1327.24 209.6H1315.54C1303.75 209.6 1294.31 206.047 1287.2 198.94C1280.09 191.833 1276.54 182.387 1276.54 170.6V110.8C1276.54 97.8 1280.18 87.66 1287.46 80.38C1294.91 72.9267 1305.14 69.2 1318.14 69.2H1371.44V25H1416.94V207H1376.64ZM1340.24 171.9C1349.43 171.9 1359.83 170.167 1371.44 166.7V104.3H1332.44C1325.51 104.3 1322.04 107.767 1322.04 114.7V162.8C1322.04 165.4 1322.91 167.567 1324.64 169.3C1326.37 171.033 1328.54 171.9 1331.14 171.9H1340.24Z" stroke="black" stroke-width="8" mask="url(#path-1-outside-1_301_25)"/>
<path d="M1496.21 99.1C1489.28 99.1 1485.81 102.567 1485.81 109.5V123.8H1530.01V109.5C1530.01 102.567 1526.54 99.1 1519.61 99.1H1496.21ZM1570.31 204.4C1536.86 207.867 1506.52 209.6 1479.31 209.6C1467.52 209.6 1458.08 206.047 1450.97 198.94C1443.86 191.833 1440.31 182.387 1440.31 170.6V108.2C1440.31 95.2 1443.95 85.06 1451.23 77.78C1458.68 70.3267 1468.91 66.6 1481.91 66.6H1533.91C1546.91 66.6 1557.05 70.3267 1564.33 77.78C1571.78 85.06 1575.51 95.2 1575.51 108.2V156.3H1485.81V166.7C1485.81 169.3 1486.68 171.467 1488.41 173.2C1490.14 174.933 1492.31 175.8 1494.91 175.8C1512.07 175.8 1537.2 174.5 1570.31 171.9V204.4Z" stroke="black" stroke-width="8" mask="url(#path-1-outside-1_301_25)"/>
<path d="M125.2 105V144L8.19995 92V58.2L125.2 6.19995V45.2L51.1 75.1L125.2 105Z" stroke="black" stroke-width="8" mask="url(#path-1-outside-1_301_25)"/>
<path d="M284.5 174.1L210.4 144.2V105.2L327.4 157.2V191L210.4 243V204L284.5 174.1Z" stroke="black" stroke-width="8" mask="url(#path-1-outside-1_301_25)"/>
<path d="M111 211L189 28.9999H233.2L157.8 211H111Z" stroke="black" stroke-width="8" mask="url(#path-1-outside-1_301_25)"/>
</g>
<defs>
<filter id="filter0_d_301_25" x="0.199951" y="0.0449219" width="1583.31" height="257.11" filterUnits="userSpaceOnUse" color-interpolation-filters="sRGB">
<feFlood flood-opacity="0" result="BackgroundImageFix"/>
<feColorMatrix in="SourceAlpha" type="matrix" values="0 0 0 0 0 0 0 0 0 0 0 0 0 0 0 0 0 0 127 0" result="hardAlpha"/>
<feOffset dy="4"/>
<feGaussianBlur stdDeviation="2"/>
<feComposite in2="hardAlpha" operator="out"/>
<feColorMatrix type="matrix" values="0 0 0 0 0 0 0 0 0 0 0 0 0 0 0 0 0 0 0.25 0"/>
<feBlend mode="normal" in2="BackgroundImageFix" result="effect1_dropShadow_301_25"/>
<feBlend mode="normal" in="SourceGraphic" in2="effect1_dropShadow_301_25" result="shape"/>
</filter>
</defs>
</svg>
