<svg width="1235" height="201" viewBox="0 0 1235 201" fill="none" xmlns="http://www.w3.org/2000/svg">
<g filter="url(#filter0_d_301_26)">
<mask id="path-1-outside-1_301_26" maskUnits="userSpaceOnUse" x="4.3999" y="0" width="1227" height="193" fill="black">
<rect fill="white" x="4.3999" width="1227" height="193"/>
<path d="M154 183.4C115.347 186.867 83.2799 188.6 57.7999 188.6C40.8132 188.6 28.3332 184.613 20.3599 176.64C12.3866 168.667 8.3999 156.187 8.3999 139.2V56C8.3999 37.8 12.4732 24.6267 20.6199 16.48C28.9399 8.16 42.1999 4 60.3999 4H154V40.4H70.7999C60.3999 40.4 55.1999 45.6 55.1999 56V139.2C55.1999 143.187 56.3266 146.393 58.5799 148.82C61.0066 151.073 64.0399 152.2 67.6799 152.2C71.3199 152.2 75.3066 152.2 79.6399 152.2C83.9732 152.027 88.4799 151.853 93.1599 151.68C97.8399 151.507 102.52 151.333 107.2 151.16C112.053 150.987 118.207 150.64 125.66 150.12C133.287 149.6 142.733 148.993 154 148.3V183.4Z"/>
<path d="M217.73 50.8C234.544 47.3333 249.277 45.6 261.93 45.6H273.63C285.417 45.6 294.864 49.1533 301.97 56.26C309.077 63.3667 312.63 72.8133 312.63 84.6V186H267.13V89.8C267.13 87.2 266.264 85.0333 264.53 83.3C262.797 81.5667 260.63 80.7 258.03 80.7H248.93C242.344 80.7 236.277 81.0467 230.73 81.74C225.357 82.4333 221.024 82.9533 217.73 83.3V186H172.23V4H217.73V50.8Z"/>
<path d="M390.6 152.2C399.787 152.2 410.187 150.467 421.8 147V131.4H384.1C381.5 131.4 379.333 132.267 377.6 134C375.867 135.733 375 137.9 375 140.5V143.1C375 145.7 375.867 147.867 377.6 149.6C379.333 151.333 381.5 152.2 384.1 152.2H390.6ZM342.5 50.8C374.22 47.3333 402.82 45.6 428.3 45.6C440.087 45.6 449.533 49.1533 456.64 56.26C463.747 63.3667 467.3 72.8133 467.3 84.6V186H427L424.4 173C416.253 178.373 407.847 182.36 399.18 184.96C390.687 187.387 383.493 188.6 377.6 188.6H368.5C356.713 188.6 347.267 185.047 340.16 177.94C333.053 170.833 329.5 161.387 329.5 149.6V137.9C329.5 126.113 333.053 116.667 340.16 109.56C347.267 102.453 356.713 98.9 368.5 98.9H421.8V88.5C421.8 85.9 420.933 83.7333 419.2 82C417.467 80.2667 415.3 79.4 412.7 79.4C401.433 79.4 388.953 79.92 375.26 80.96C361.74 82 350.82 82.78 342.5 83.3V50.8Z"/>
<path d="M586.829 186C570.015 187.733 553.549 188.6 537.429 188.6C525.642 188.6 516.195 185.047 509.089 177.94C501.982 170.833 498.429 161.387 498.429 149.6V83.3H482.829V48.2H498.429L503.629 17H543.929V48.2H576.429V83.3H543.929V143.1C543.929 145.7 544.795 147.867 546.529 149.6C548.262 151.333 550.429 152.2 553.029 152.2H586.829V186Z"/>
<path d="M748.141 183.4C709.487 186.867 677.421 188.6 651.941 188.6C634.954 188.6 622.474 184.613 614.501 176.64C606.527 168.667 602.541 156.187 602.541 139.2V56C602.541 37.8 606.614 24.6267 614.76 16.48C623.08 8.16 636.341 4 654.541 4H748.141V40.4H664.941C654.541 40.4 649.341 45.6 649.341 56V139.2C649.341 143.187 650.467 146.393 652.721 148.82C655.147 151.073 658.181 152.2 661.821 152.2C665.461 152.2 669.447 152.2 673.781 152.2C678.114 152.027 682.621 151.853 687.301 151.68C691.981 151.507 696.661 151.333 701.341 151.16C706.194 150.987 712.347 150.64 719.801 150.12C727.427 149.6 736.874 148.993 748.141 148.3V183.4Z"/>
<path d="M906.771 147C906.771 160 903.044 170.227 895.591 177.68C888.311 184.96 878.171 188.6 865.171 188.6H805.371C792.371 188.6 782.144 184.96 774.691 177.68C767.411 170.227 763.771 160 763.771 147V87.2C763.771 74.2 767.411 64.06 774.691 56.78C782.144 49.3267 792.371 45.6 805.371 45.6H865.171C878.171 45.6 888.311 49.3267 895.591 56.78C903.044 64.06 906.771 74.2 906.771 87.2V147ZM861.271 91.1C861.271 84.1667 857.804 80.7 850.871 80.7H819.671C812.738 80.7 809.271 84.1667 809.271 91.1V143.1C809.271 150.033 812.738 153.5 819.671 153.5H850.871C857.804 153.5 861.271 150.033 861.271 143.1V91.1Z"/>
<path d="M1027.64 186L1025.04 173C1016.89 178.373 1008.49 182.36 999.821 184.96C991.327 187.387 984.134 188.6 978.241 188.6H966.541C954.754 188.6 945.307 185.047 938.201 177.94C931.094 170.833 927.541 161.387 927.541 149.6V89.8C927.541 76.8 931.181 66.66 938.461 59.38C945.914 51.9267 956.141 48.2 969.141 48.2H1022.44V4H1067.94V186H1027.64ZM991.241 150.9C1000.43 150.9 1010.83 149.167 1022.44 145.7V83.3H983.441C976.507 83.3 973.041 86.7667 973.041 93.7V141.8C973.041 144.4 973.907 146.567 975.641 148.3C977.374 150.033 979.541 150.9 982.141 150.9H991.241Z"/>
<path d="M1147.21 78.1C1140.28 78.1 1136.81 81.5667 1136.81 88.5V102.8H1181.01V88.5C1181.01 81.5667 1177.54 78.1 1170.61 78.1H1147.21ZM1221.31 183.4C1187.86 186.867 1157.52 188.6 1130.31 188.6C1118.52 188.6 1109.08 185.047 1101.97 177.94C1094.86 170.833 1091.31 161.387 1091.31 149.6V87.2C1091.31 74.2 1094.95 64.06 1102.23 56.78C1109.68 49.3267 1119.91 45.6 1132.91 45.6H1184.91C1197.91 45.6 1208.05 49.3267 1215.33 56.78C1222.78 64.06 1226.51 74.2 1226.51 87.2V135.3H1136.81V145.7C1136.81 148.3 1137.68 150.467 1139.41 152.2C1141.14 153.933 1143.31 154.8 1145.91 154.8C1163.07 154.8 1188.2 153.5 1221.31 150.9V183.4Z"/>
</mask>
<path d="M154 183.4C115.347 186.867 83.2799 188.6 57.7999 188.6C40.8132 188.6 28.3332 184.613 20.3599 176.64C12.3866 168.667 8.3999 156.187 8.3999 139.2V56C8.3999 37.8 12.4732 24.6267 20.6199 16.48C28.9399 8.16 42.1999 4 60.3999 4H154V40.4H70.7999C60.3999 40.4 55.1999 45.6 55.1999 56V139.2C55.1999 143.187 56.3266 146.393 58.5799 148.82C61.0066 151.073 64.0399 152.2 67.6799 152.2C71.3199 152.2 75.3066 152.2 79.6399 152.2C83.9732 152.027 88.4799 151.853 93.1599 151.68C97.8399 151.507 102.52 151.333 107.2 151.16C112.053 150.987 118.207 150.64 125.66 150.12C133.287 149.6 142.733 148.993 154 148.3V183.4Z" fill="white"/>
<path d="M217.73 50.8C234.544 47.3333 249.277 45.6 261.93 45.6H273.63C285.417 45.6 294.864 49.1533 301.97 56.26C309.077 63.3667 312.63 72.8133 312.63 84.6V186H267.13V89.8C267.13 87.2 266.264 85.0333 264.53 83.3C262.797 81.5667 260.63 80.7 258.03 80.7H248.93C242.344 80.7 236.277 81.0467 230.73 81.74C225.357 82.4333 221.024 82.9533 217.73 83.3V186H172.23V4H217.73V50.8Z" fill="white"/>
<path d="M390.6 152.2C399.787 152.2 410.187 150.467 421.8 147V131.4H384.1C381.5 131.4 379.333 132.267 377.6 134C375.867 135.733 375 137.9 375 140.5V143.1C375 145.7 375.867 147.867 377.6 149.6C379.333 151.333 381.5 152.2 384.1 152.2H390.6ZM342.5 50.8C374.22 47.3333 402.82 45.6 428.3 45.6C440.087 45.6 449.533 49.1533 456.64 56.26C463.747 63.3667 467.3 72.8133 467.3 84.6V186H427L424.4 173C416.253 178.373 407.847 182.36 399.18 184.96C390.687 187.387 383.493 188.6 377.6 188.6H368.5C356.713 188.6 347.267 185.047 340.16 177.94C333.053 170.833 329.5 161.387 329.5 149.6V137.9C329.5 126.113 333.053 116.667 340.16 109.56C347.267 102.453 356.713 98.9 368.5 98.9H421.8V88.5C421.8 85.9 420.933 83.7333 419.2 82C417.467 80.2667 415.3 79.4 412.7 79.4C401.433 79.4 388.953 79.92 375.26 80.96C361.74 82 350.82 82.78 342.5 83.3V50.8Z" fill="white"/>
<path d="M586.829 186C570.015 187.733 553.549 188.6 537.429 188.6C525.642 188.6 516.195 185.047 509.089 177.94C501.982 170.833 498.429 161.387 498.429 149.6V83.3H482.829V48.2H498.429L503.629 17H543.929V48.2H576.429V83.3H543.929V143.1C543.929 145.7 544.795 147.867 546.529 149.6C548.262 151.333 550.429 152.2 553.029 152.2H586.829V186Z" fill="white"/>
<path d="M748.141 183.4C709.487 186.867 677.421 188.6 651.941 188.6C634.954 188.6 622.474 184.613 614.501 176.64C606.527 168.667 602.541 156.187 602.541 139.2V56C602.541 37.8 606.614 24.6267 614.76 16.48C623.08 8.16 636.341 4 654.541 4H748.141V40.4H664.941C654.541 40.4 649.341 45.6 649.341 56V139.2C649.341 143.187 650.467 146.393 652.721 148.82C655.147 151.073 658.181 152.2 661.821 152.2C665.461 152.2 669.447 152.2 673.781 152.2C678.114 152.027 682.621 151.853 687.301 151.68C691.981 151.507 696.661 151.333 701.341 151.16C706.194 150.987 712.347 150.64 719.801 150.12C727.427 149.6 736.874 148.993 748.141 148.3V183.4Z" fill="white"/>
<path d="M906.771 147C906.771 160 903.044 170.227 895.591 177.68C888.311 184.96 878.171 188.6 865.171 188.6H805.371C792.371 188.6 782.144 184.96 774.691 177.68C767.411 170.227 763.771 160 763.771 147V87.2C763.771 74.2 767.411 64.06 774.691 56.78C782.144 49.3267 792.371 45.6 805.371 45.6H865.171C878.171 45.6 888.311 49.3267 895.591 56.78C903.044 64.06 906.771 74.2 906.771 87.2V147ZM861.271 91.1C861.271 84.1667 857.804 80.7 850.871 80.7H819.671C812.738 80.7 809.271 84.1667 809.271 91.1V143.1C809.271 150.033 812.738 153.5 819.671 153.5H850.871C857.804 153.5 861.271 150.033 861.271 143.1V91.1Z" fill="white"/>
<path d="M1027.64 186L1025.04 173C1016.89 178.373 1008.49 182.36 999.821 184.96C991.327 187.387 984.134 188.6 978.241 188.6H966.541C954.754 188.6 945.307 185.047 938.201 177.94C931.094 170.833 927.541 161.387 927.541 149.6V89.8C927.541 76.8 931.181 66.66 938.461 59.38C945.914 51.9267 956.141 48.2 969.141 48.2H1022.44V4H1067.94V186H1027.64ZM991.241 150.9C1000.43 150.9 1010.83 149.167 1022.44 145.7V83.3H983.441C976.507 83.3 973.041 86.7667 973.041 93.7V141.8C973.041 144.4 973.907 146.567 975.641 148.3C977.374 150.033 979.541 150.9 982.141 150.9H991.241Z" fill="white"/>
<path d="M1147.21 78.1C1140.28 78.1 1136.81 81.5667 1136.81 88.5V102.8H1181.01V88.5C1181.01 81.5667 1177.54 78.1 1170.61 78.1H1147.21ZM1221.31 183.4C1187.86 186.867 1157.52 188.6 1130.31 188.6C1118.52 188.6 1109.08 185.047 1101.97 177.94C1094.86 170.833 1091.31 161.387 1091.31 149.6V87.2C1091.31 74.2 1094.95 64.06 1102.23 56.78C1109.68 49.3267 1119.91 45.6 1132.91 45.6H1184.91C1197.91 45.6 1208.05 49.3267 1215.33 56.78C1222.78 64.06 1226.51 74.2 1226.51 87.2V135.3H1136.81V145.7C1136.81 148.3 1137.68 150.467 1139.41 152.2C1141.14 153.933 1143.31 154.8 1145.91 154.8C1163.07 154.8 1188.2 153.5 1221.31 150.9V183.4Z" fill="white"/>
<path d="M154 183.4C115.347 186.867 83.2799 188.6 57.7999 188.6C40.8132 188.6 28.3332 184.613 20.3599 176.64C12.3866 168.667 8.3999 156.187 8.3999 139.2V56C8.3999 37.8 12.4732 24.6267 20.6199 16.48C28.9399 8.16 42.1999 4 60.3999 4H154V40.4H70.7999C60.3999 40.4 55.1999 45.6 55.1999 56V139.2C55.1999 143.187 56.3266 146.393 58.5799 148.82C61.0066 151.073 64.0399 152.2 67.6799 152.2C71.3199 152.2 75.3066 152.2 79.6399 152.2C83.9732 152.027 88.4799 151.853 93.1599 151.68C97.8399 151.507 102.52 151.333 107.2 151.16C112.053 150.987 118.207 150.64 125.66 150.12C133.287 149.6 142.733 148.993 154 148.3V183.4Z" stroke="black" stroke-width="8" mask="url(#path-1-outside-1_301_26)"/>
<path d="M217.73 50.8C234.544 47.3333 249.277 45.6 261.93 45.6H273.63C285.417 45.6 294.864 49.1533 301.97 56.26C309.077 63.3667 312.63 72.8133 312.63 84.6V186H267.13V89.8C267.13 87.2 266.264 85.0333 264.53 83.3C262.797 81.5667 260.63 80.7 258.03 80.7H248.93C242.344 80.7 236.277 81.0467 230.73 81.74C225.357 82.4333 221.024 82.9533 217.73 83.3V186H172.23V4H217.73V50.8Z" stroke="black" stroke-width="8" mask="url(#path-1-outside-1_301_26)"/>
<path d="M390.6 152.2C399.787 152.2 410.187 150.467 421.8 147V131.4H384.1C381.5 131.4 379.333 132.267 377.6 134C375.867 135.733 375 137.9 375 140.5V143.1C375 145.7 375.867 147.867 377.6 149.6C379.333 151.333 381.5 152.2 384.1 152.2H390.6ZM342.5 50.8C374.22 47.3333 402.82 45.6 428.3 45.6C440.087 45.6 449.533 49.1533 456.64 56.26C463.747 63.3667 467.3 72.8133 467.3 84.6V186H427L424.4 173C416.253 178.373 407.847 182.36 399.18 184.96C390.687 187.387 383.493 188.6 377.6 188.6H368.5C356.713 188.6 347.267 185.047 340.16 177.94C333.053 170.833 329.5 161.387 329.5 149.6V137.9C329.5 126.113 333.053 116.667 340.16 109.56C347.267 102.453 356.713 98.9 368.5 98.9H421.8V88.5C421.8 85.9 420.933 83.7333 419.2 82C417.467 80.2667 415.3 79.4 412.7 79.4C401.433 79.4 388.953 79.92 375.26 80.96C361.74 82 350.82 82.78 342.5 83.3V50.8Z" stroke="black" stroke-width="8" mask="url(#path-1-outside-1_301_26)"/>
<path d="M586.829 186C570.015 187.733 553.549 188.6 537.429 188.6C525.642 188.6 516.195 185.047 509.089 177.94C501.982 170.833 498.429 161.387 498.429 149.6V83.3H482.829V48.2H498.429L503.629 17H543.929V48.2H576.429V83.3H543.929V143.1C543.929 145.7 544.795 147.867 546.529 149.6C548.262 151.333 550.429 152.2 553.029 152.2H586.829V186Z" stroke="black" stroke-width="8" mask="url(#path-1-outside-1_301_26)"/>
<path d="M748.141 183.4C709.487 186.867 677.421 188.6 651.941 188.6C634.954 188.6 622.474 184.613 614.501 176.64C606.527 168.667 602.541 156.187 602.541 139.2V56C602.541 37.8 606.614 24.6267 614.76 16.48C623.08 8.16 636.341 4 654.541 4H748.141V40.4H664.941C654.541 40.4 649.341 45.6 649.341 56V139.2C649.341 143.187 650.467 146.393 652.721 148.82C655.147 151.073 658.181 152.2 661.821 152.2C665.461 152.2 669.447 152.2 673.781 152.2C678.114 152.027 682.621 151.853 687.301 151.68C691.981 151.507 696.661 151.333 701.341 151.16C706.194 150.987 712.347 150.64 719.801 150.12C727.427 149.6 736.874 148.993 748.141 148.3V183.4Z" stroke="black" stroke-width="8" mask="url(#path-1-outside-1_301_26)"/>
<path d="M906.771 147C906.771 160 903.044 170.227 895.591 177.68C888.311 184.96 878.171 188.6 865.171 188.6H805.371C792.371 188.6 782.144 184.96 774.691 177.68C767.411 170.227 763.771 160 763.771 147V87.2C763.771 74.2 767.411 64.06 774.691 56.78C782.144 49.3267 792.371 45.6 805.371 45.6H865.171C878.171 45.6 888.311 49.3267 895.591 56.78C903.044 64.06 906.771 74.2 906.771 87.2V147ZM861.271 91.1C861.271 84.1667 857.804 80.7 850.871 80.7H819.671C812.738 80.7 809.271 84.1667 809.271 91.1V143.1C809.271 150.033 812.738 153.5 819.671 153.5H850.871C857.804 153.5 861.271 150.033 861.271 143.1V91.1Z" stroke="black" stroke-width="8" mask="url(#path-1-outside-1_301_26)"/>
<path d="M1027.64 186L1025.04 173C1016.89 178.373 1008.49 182.36 999.821 184.96C991.327 187.387 984.134 188.6 978.241 188.6H966.541C954.754 188.6 945.307 185.047 938.201 177.94C931.094 170.833 927.541 161.387 927.541 149.6V89.8C927.541 76.8 931.181 66.66 938.461 59.38C945.914 51.9267 956.141 48.2 969.141 48.2H1022.44V4H1067.94V186H1027.64ZM991.241 150.9C1000.43 150.9 1010.83 149.167 1022.44 145.7V83.3H983.441C976.507 83.3 973.041 86.7667 973.041 93.7V141.8C973.041 144.4 973.907 146.567 975.641 148.3C977.374 150.033 979.541 150.9 982.141 150.9H991.241Z" stroke="black" stroke-width="8" mask="url(#path-1-outside-1_301_26)"/>
<path d="M1147.21 78.1C1140.28 78.1 1136.81 81.5667 1136.81 88.5V102.8H1181.01V88.5C1181.01 81.5667 1177.54 78.1 1170.61 78.1H1147.21ZM1221.31 183.4C1187.86 186.867 1157.52 188.6 1130.31 188.6C1118.52 188.6 1109.08 185.047 1101.97 177.94C1094.86 170.833 1091.31 161.387 1091.31 149.6V87.2C1091.31 74.2 1094.95 64.06 1102.23 56.78C1109.68 49.3267 1119.91 45.6 1132.91 45.6H1184.91C1197.91 45.6 1208.05 49.3267 1215.33 56.78C1222.78 64.06 1226.51 74.2 1226.51 87.2V135.3H1136.81V145.7C1136.81 148.3 1137.68 150.467 1139.41 152.2C1141.14 153.933 1143.31 154.8 1145.91 154.8C1163.07 154.8 1188.2 153.5 1221.31 150.9V183.4Z" stroke="black" stroke-width="8" mask="url(#path-1-outside-1_301_26)"/>
</g>
<defs>
<filter id="filter0_d_301_26" x="0.399902" y="0" width="1234.11" height="200.6" filterUnits="userSpaceOnUse" color-interpolation-filters="sRGB">
<feFlood flood-opacity="0" result="BackgroundImageFix"/>
<feColorMatrix in="SourceAlpha" type="matrix" values="0 0 0 0 0 0 0 0 0 0 0 0 0 0 0 0 0 0 127 0" result="hardAlpha"/>
<feOffset dy="4"/>
<feGaussianBlur stdDeviation="2"/>
<feComposite in2="hardAlpha" operator="out"/>
<feColorMatrix type="matrix" values="0 0 0 0 0 0 0 0 0 0 0 0 0 0 0 0 0 0 0.25 0"/>
<feBlend mode="normal" in2="BackgroundImageFix" result="effect1_dropShadow_301_26"/>
<feBlend mode="normal" in="SourceGraphic" in2="effect1_dropShadow_301_26" result="shape"/>
</filter>
</defs>
</svg>
